<svg width="53" height="53" viewBox="0 0 53 53" fill="none" xmlns="http://www.w3.org/2000/svg">
<circle opacity="0.1" cx="26.5" cy="26.5" r="26.5" fill="#535C64"/>
<path d="M40 20.491C40 17.4595 36.0263 15 31.1292 15C26.459 15 22.6314 17.2325 22.2863 20.0744C22.2676 20.2112 22.2583 20.3511 22.2583 20.491V23.5133C21.7297 23.3765 21.1701 23.3049 20.598 23.3049C20.4985 23.3049 20.3989 23.3081 20.2994 23.3143V25.0431H16.1361C14.8209 26.2432 14 27.9751 14 29.8998C14 33.5501 16.9508 36.4977 20.598 36.4977C21.7795 36.4977 22.8864 36.1899 23.8441 35.6458C25.4453 37.0698 28.1131 38.0057 31.1292 38.0057C31.8567 38.0057 32.5656 37.9498 33.2403 37.8471C33.8311 37.7601 34.397 37.6357 34.9318 37.474C37.4099 36.7465 39.2537 35.3286 39.8196 33.6185C39.9347 33.2609 40 32.894 40 32.5147V28.2892C40 27.6673 39.829 27.0641 39.518 26.5044C39.829 25.9447 40 25.3415 40 24.7166V20.491ZM23.9498 23.7154C24.0182 23.7651 24.0897 23.8304 24.1612 23.8802C24.3882 24.0574 24.6307 24.2284 24.8919 24.387C25.464 24.7414 26.1201 25.043 26.8321 25.2887C26.9938 25.3446 27.1586 25.3975 27.3296 25.4473V27.9098C27.1524 27.8476 26.9875 27.7823 26.8259 27.7139C26.3066 26.237 25.2774 24.9995 23.9498 24.216V23.7154ZM24.1083 33.2547C23.7135 33.6682 23.2471 34.0165 22.7247 34.2715C22.0811 34.5824 21.3597 34.7596 20.598 34.7596C17.9177 34.7596 15.7381 32.58 15.7381 29.8998C15.7381 27.2227 17.9177 25.0431 20.598 25.0431C21.2043 25.0431 21.7857 25.155 22.3236 25.3602C23.844 25.9385 25.0007 27.26 25.3489 28.8768C25.4205 29.2095 25.4578 29.5515 25.4578 29.8998C25.4578 30.1081 25.4454 30.3164 25.4143 30.5154C25.3428 31.1124 25.1562 31.6752 24.8857 32.1851C24.6773 32.5769 24.4162 32.9376 24.1083 33.2547ZM27.3296 35.7079C26.487 35.4126 25.7718 35.0332 25.2246 34.6041C25.7159 34.1253 26.1294 33.5656 26.4528 32.95C26.7326 33.0588 27.0249 33.1583 27.3296 33.2454V35.7079ZM38.0971 31.6783C38.1686 31.6348 38.2401 31.5726 38.3085 31.5135V32.5147C38.3085 32.8816 38.1841 33.2547 37.9541 33.6185C37.4379 34.4331 36.3776 35.2011 34.9318 35.7048V33.2454L33.2403 33.6185V36.137C32.5843 36.2521 31.8754 36.3143 31.1292 36.3143C30.3829 36.3143 29.674 36.2521 29.0179 36.1401V33.6185C29.6926 33.7242 30.4016 33.7802 31.1292 33.7802C31.8567 33.7802 32.5656 33.7242 33.2403 33.6185V31.9115C32.5843 32.0265 31.8754 32.0887 31.1292 32.0887C29.5559 32.0887 28.1598 31.8151 27.028 31.3736C27.1368 30.901 27.1959 30.4066 27.1959 29.8998C27.1959 29.8127 27.1928 29.7225 27.1897 29.6355C28.3774 30.0024 29.7144 30.2045 31.1292 30.2045C34.0612 30.2045 36.6606 29.3277 38.2743 27.9689C38.2961 28.0746 38.3085 28.1834 38.3085 28.2892C38.3085 28.569 38.2401 28.8488 38.0971 29.1255C37.8887 29.5795 37.5157 30.0148 36.9902 30.4066C36.4492 30.8232 35.7527 31.1963 34.9318 31.4824V33.2454C36.1724 32.8816 37.2545 32.3406 38.0971 31.6783ZM29.0179 28.3389V25.8235C29.6926 25.9261 30.4016 25.9789 31.1292 25.9789C31.8567 25.9789 32.5656 25.9261 33.2403 25.8204V28.3389C32.5843 28.4508 31.8754 28.513 31.1292 28.513C30.3829 28.513 29.674 28.4508 29.0179 28.3389ZM38.3085 24.7166C38.3085 24.8223 38.2961 24.9311 38.2743 25.0368C38.181 25.5374 37.8701 26.0411 37.382 26.5044C36.8005 27.0516 35.9641 27.5491 34.9318 27.9098V25.4473C35.0997 25.3975 35.2645 25.3446 35.4262 25.2887C36.1382 25.0462 36.7912 24.7414 37.3664 24.387C37.6276 24.2284 37.8701 24.0574 38.0971 23.8802C38.1686 23.8366 38.2401 23.7776 38.3085 23.7154V24.7166ZM38.0971 21.3274C37.8887 21.7814 37.5157 22.2167 36.9902 22.6085C36.5642 22.9349 36.0387 23.2397 35.4324 23.4884C34.2664 23.9797 32.7957 24.2906 31.1292 24.2906C29.4626 24.2906 27.9918 23.9797 26.8259 23.4884C26.2195 23.2397 25.691 22.9349 25.265 22.6085C24.7427 22.2167 24.3695 21.7814 24.1612 21.3274C24.0182 21.0507 23.9498 20.7709 23.9498 20.491C23.9498 18.697 26.8943 16.6915 31.1292 16.6915C35.364 16.6915 38.3085 18.697 38.3085 20.491C38.3085 20.7709 38.2401 21.0507 38.0971 21.3274Z" fill="white"/>
<path d="M23.4117 29.0323V30.7735H21.4684V32.7168H19.7272V30.7735H17.7808V29.0323H19.7272V27.089H21.4684V29.0323H23.4117Z" fill="white"/>
</svg>
