<svg width="22" height="24" viewBox="0 0 22 24" fill="none" xmlns="http://www.w3.org/2000/svg">
<path d="M9.21635 14.0753C9.21635 14.9552 8.71494 15.6086 7.88033 15.8998V16.2556C7.88033 16.6244 7.58271 16.922 7.21393 16.922C6.84514 16.922 6.54753 16.6244 6.54753 16.2556V16.0583C6.1561 16.0356 5.78409 15.9548 5.45413 15.8254C5.10476 15.6895 4.92036 15.3013 5.03682 14.9455C5.10799 14.7384 5.24386 14.5832 5.42178 14.5023C5.59646 14.4214 5.79703 14.4182 5.97819 14.4958C6.16581 14.5734 6.35991 14.6284 6.5443 14.6575C6.64135 14.6737 6.73516 14.6802 6.82574 14.6802C7.05542 14.6802 7.59242 14.6284 7.59242 14.1658C7.59242 13.9264 7.53095 13.7227 6.76104 13.4348C6.6834 13.4089 6.61223 13.3798 6.5443 13.3506C5.33767 12.8525 5.07564 12.1084 5.07564 11.5553C5.07564 10.6462 5.65146 9.95394 6.5443 9.69838V9.49458C6.5443 9.1258 6.84191 8.82819 7.2107 8.82819C7.57948 8.82819 7.87709 9.1258 7.87709 9.49458V9.6434C8.11971 9.68222 8.31704 9.74691 8.46262 9.79867C8.82169 9.93453 9.00932 10.326 8.88639 10.6883C8.81846 10.8727 8.68583 11.0215 8.51438 11.1024C8.34292 11.1832 8.14882 11.1865 7.97414 11.1185C7.94179 11.1056 7.90944 11.0959 7.87709 11.0862C7.68947 11.0247 7.49213 10.9956 7.29804 10.9956C6.92602 10.9956 6.68016 11.1735 6.68016 11.442C6.68016 11.6426 6.73839 11.7914 7.54066 12.0922C7.65711 12.1375 7.77034 12.1861 7.87709 12.2346C8.78935 12.6616 9.21635 13.2504 9.21635 14.0753Z" fill="#535C64"/>
<path d="M18.8112 9.49453H13.4444V0H1.91832V1.91832H11.5228C11.5196 4.40922 11.5196 6.7319 11.5196 8.82814V14.3922C11.5196 15.6797 11.5228 17.7048 11.5228 19.2479V20.1601C11.5131 20.3639 11.5196 20.7392 11.6814 21.1694C11.6975 21.2147 11.7169 21.2568 11.7364 21.3021C11.9143 21.6838 12.1504 21.9393 12.3057 22.0784H3.88192C2.79822 22.0784 1.91832 21.1985 1.91832 20.1148V1.91832H0V20.351C0 22.3663 1.6304 24 3.64577 24H15.2657C15.4727 23.9935 16.4367 23.9256 17.2131 23.1233C17.9377 22.3696 18.0121 21.4703 18.0218 21.205V21.1694H21.8229V12.5063C21.8229 10.8435 20.4739 9.49453 18.8112 9.49453ZM16.0712 21.1694C15.9644 21.6514 15.5309 22.0105 15.0166 22.0105C14.4084 22.0105 13.8876 21.6708 13.6256 21.1694C13.5123 20.9527 13.4444 20.7036 13.4444 20.4383V11.4129H16.097V21.1694H16.0712ZM19.9013 19.2479H18.0218V12.3542C18.0218 11.8366 18.4391 11.4129 18.9632 11.4129C19.222 11.4129 19.4549 11.5196 19.6231 11.6911C19.7946 11.8593 19.9013 12.0954 19.9013 12.3542V19.2479Z" fill="#535C64"/>
</svg>
