<svg width="22" height="16" viewBox="0 0 22 16" fill="none" xmlns="http://www.w3.org/2000/svg">
<rect width="22" height="16" rx="2" fill="white"/>
<mask id="mask0_1925_55226" style="mask-type:alpha" maskUnits="userSpaceOnUse" x="0" y="0" width="22" height="16">
<rect width="22" height="16" rx="2" fill="white"/>
</mask>
<g mask="url(#mask0_1925_55226)">
<rect width="22" height="16" fill="#0A17A7"/>
<path fill-rule="evenodd" clip-rule="evenodd" d="M-1.00768 -1.5332L8.38093 4.91463V-1.0668H13.619V4.91463L23.0076 -1.5332L24.1793 0.235409L16.7564 5.3332H22V10.6665H16.7562L24.1793 15.7645L23.0076 17.5331L13.619 11.0853V17.0665H8.38093V11.0853L-1.00768 17.5331L-2.17932 15.7645L5.24375 10.6665H-2.40803e-05V5.3332H5.24351L-2.17932 0.23541L-1.00768 -1.5332Z" fill="white"/>
<path d="M14.6677 5.06566L24.619 -1.6001" stroke="#DB1F35" stroke-width="0.666667" stroke-linecap="round"/>
<path d="M15.7243 10.9578L24.6452 17.0801" stroke="#DB1F35" stroke-width="0.666667" stroke-linecap="round"/>
<path d="M6.29009 5.04824L-3.01514 -1.33691" stroke="#DB1F35" stroke-width="0.666667" stroke-linecap="round"/>
<path d="M7.29934 10.8837L-3.01514 17.8481" stroke="#DB1F35" stroke-width="0.666667" stroke-linecap="round"/>
<path fill-rule="evenodd" clip-rule="evenodd" d="M0 9.6H9.42857V16H12.5714V9.6H22V6.4H12.5714V0H9.42857V6.4H0V9.6Z" fill="#E6273E"/>
</g>
</svg>
