<svg width="22" height="24" viewBox="0 0 22 24" fill="none" xmlns="http://www.w3.org/2000/svg">
<path d="M11.0887 4.06036C9.49823 4.06036 8.20898 5.8458 8.20898 8.04485C8.20898 8.69974 8.32099 9.31672 8.52508 9.86132C8.99798 11.1401 9.9562 12.0225 11.0638 12.0328H11.0887C12.6791 12.0328 13.9684 10.2474 13.9684 8.04485C13.9684 5.8458 12.6791 4.06036 11.0887 4.06036ZM11.0887 10.4404C10.1354 10.4404 9.36136 9.36497 9.36136 8.04485C9.36136 6.72818 10.1354 5.65278 11.0887 5.65278C12.0419 5.65278 12.816 6.72818 12.816 8.04485C12.816 9.36497 12.0419 10.4404 11.0887 10.4404Z" fill="#535C64"/>
<path d="M20.3624 0H1.81495C0.908978 0 0.177246 1.01681 0.177246 2.26799V19.9638H3.94797C3.91064 20.305 3.88824 20.6497 3.88824 21.0047V24H17.1343V22.4041H5.04061V20.9565C5.04061 20.6152 5.06548 20.2844 5.11277 19.9638H17.0646C17.1119 20.2844 17.1368 20.6152 17.1368 20.9565V24H18.2891V21.0047C18.2891 20.6497 18.2667 20.305 18.2294 19.9638H20.7258V18.199H17.8361C17.0745 15.969 15.4343 14.4248 13.5353 14.4248H8.63958C6.74053 14.4248 5.10282 15.969 4.34121 18.199H1.45157V1.7682H20.7258V18.199H22.0001V2.26799C22.0001 1.01681 21.2659 0 20.3624 0ZM8.60473 16.0207H13.5726C14.8021 16.0207 15.8873 16.8858 16.5295 18.199H5.64789C6.28754 16.8858 7.37272 16.0207 8.60473 16.0207Z" fill="#535C64"/>
</svg>
