<svg width="20" height="20" viewBox="0 0 20 20" fill="none" xmlns="http://www.w3.org/2000/svg">
<path d="M20 1.29873V18.6197H18.1096V1.37753H1.89036V18.6197H18.1096V20H0V1.29873C0 0.581434 0.797881 0 1.78595 0H18.214C19.2021 0 20 0.581434 20 1.29873Z" fill="#535C64"/>
<path d="M16.253 2.79028H3.74365V4.16782H16.253V2.79028Z" fill="#535C64"/>
<path d="M16.253 5.26831H3.74365V6.64584H16.253V5.26831Z" fill="#535C64"/>
<path d="M16.253 7.74634H3.74365V9.12385H16.253V7.74634Z" fill="#535C64"/>
<path d="M16.253 10.2241H3.74365V11.6016H16.253V10.2241Z" fill="#535C64"/>
<path d="M9.99646 12.7021H3.74365V14.0797H9.99646V12.7021Z" fill="#535C64"/>
<path d="M16.253 15.1799H3.74365V16.5575H16.253V15.1799Z" fill="#535C64"/>
</svg>
