<svg width="20" height="20" viewBox="0 0 20 20"  xmlns="http://www.w3.org/2000/svg" fill="none">
<g clip-path="url(#clip0_1328_35313)">
<path d="M18.7519 4.43003L10.3491 0.0842753C10.241 0.0288765 10.1213 0 10 0C9.87868 0 9.75906 0.0288765 9.65091 0.0842753L1.24814 4.43003C1.12327 4.49464 1.0185 4.59264 0.945329 4.71329C0.872156 4.83394 0.833409 4.97256 0.833344 5.11393V14.8848C0.833344 15.1732 0.99376 15.4379 1.24814 15.5694L9.65091 19.9152C9.87091 20.0283 10.1291 20.0283 10.3491 19.9152L18.7519 15.5694C18.8767 15.5048 18.9815 15.4068 19.0547 15.2862C19.1279 15.1655 19.1666 15.0269 19.1667 14.8855V5.11393C19.1666 4.97256 19.1279 4.83394 19.0547 4.71329C18.9815 4.59264 18.8767 4.49464 18.7519 4.43003ZM10 1.63287L17.6389 5.58397V10.029C16.6565 9.27967 15.3969 8.46114 14.5833 8.46114C13.4833 8.46114 10.4446 10.9875 9.35529 11.926C7.92987 11.0006 6.17445 9.99973 5.41668 9.99973C4.6039 9.99973 3.34501 10.8183 2.36112 11.5676V5.58397L10 1.63287ZM10 18.3666L2.36112 14.4155V13.5423C3.8423 12.2768 5.09355 11.5537 5.39529 11.5368C5.99036 11.6091 8.87327 13.3239 10.2911 14.4493C10.4506 14.5697 10.6505 14.6225 10.8481 14.5964C11.0458 14.5704 11.2255 14.4676 11.3489 14.31C11.4723 14.1524 11.5296 13.9524 11.5087 13.7528C11.4877 13.5532 11.3902 13.3697 11.2367 13.2415C11.0467 13.0934 10.8534 12.9495 10.657 12.81C11.9265 11.733 14.1105 10.1128 14.5811 9.99896C14.9057 10.0143 16.1585 10.7375 17.6389 12.0037V14.4147L10 18.3666Z" fill="#535C64"/>
<path d="M9.375 9.375C10.4088 9.375 11.25 8.53375 11.25 7.5C11.25 6.46625 10.4088 5.625 9.375 5.625C8.34125 5.625 7.5 6.46625 7.5 7.5C7.5 8.53375 8.34125 9.375 9.375 9.375ZM9.375 6.875C9.54076 6.875 9.69973 6.94085 9.81694 7.05806C9.93415 7.17527 10 7.33424 10 7.5C10 7.66576 9.93415 7.82473 9.81694 7.94194C9.69973 8.05915 9.54076 8.125 9.375 8.125C9.20924 8.125 9.05027 8.05915 8.93306 7.94194C8.81585 7.82473 8.75 7.66576 8.75 7.5C8.75 7.33424 8.81585 7.17527 8.93306 7.05806C9.05027 6.94085 9.20924 6.875 9.375 6.875Z" fill="#535C64"/>
</g>
<defs>
<clipPath id="clip0_1328_35313">
<rect width="20" height="20" fill="white"/>
</clipPath>
</defs>
</svg>
