<svg width="53" height="53" viewBox="0 0 53 53" fill="none" xmlns="http://www.w3.org/2000/svg">
<circle opacity="0.1" cx="26.5" cy="26.5" r="26.5" fill="#535C64"/>
<path d="M18.9571 19.7047C18.4977 19.7038 18.0483 19.8393 17.666 20.094C17.2836 20.3487 16.9854 20.7111 16.8092 21.1354C16.633 21.5597 16.5867 22.0267 16.6761 22.4774C16.7655 22.928 16.9866 23.342 17.3115 23.6668C17.6364 23.9917 18.0503 24.2128 18.501 24.3022C18.9516 24.3916 19.4186 24.3453 19.8429 24.1691C20.2672 23.9928 20.6296 23.6947 20.8843 23.3123C21.139 22.93 21.2745 22.4806 21.2736 22.0212C21.2724 21.4072 21.028 20.8187 20.5938 20.3845C20.1597 19.9503 19.5711 19.7059 18.9571 19.7047ZM18.9571 21.9813C18.946 21.9812 18.9354 21.9853 18.9272 21.9927C18.919 22 18.9138 22.0102 18.9127 22.0212H18.997L18.9571 21.9813ZM18.9571 21.9813C18.946 21.9812 18.9354 21.9853 18.9272 21.9927C18.919 22 18.9138 22.0102 18.9127 22.0212H18.997L18.9571 21.9813Z" fill="white"/>
<path d="M39.5571 15.0051C39.4685 14.9983 39.3794 14.9983 39.2908 15.0051H13.3122C12.7581 15.0039 12.2228 15.206 11.8078 15.5731C11.5513 15.7917 11.346 16.064 11.2064 16.3708C11.0669 16.6775 10.9964 17.0112 11.0001 17.3482V36.6613H13.219V39H39.2864C39.9012 38.9977 40.4899 38.7515 40.9234 38.3155C41.3568 37.8795 41.5996 37.2894 41.5984 36.6746V17.3127C41.5993 16.745 41.3921 16.1966 41.0159 15.7713C40.6397 15.3461 40.1207 15.0735 39.5571 15.0051ZM18.9171 36.688C19.707 35.4898 20.9629 33.5815 22.9821 30.4751C23.0741 30.3278 23.178 30.1883 23.2927 30.0579C23.6415 29.6509 24.071 29.3207 24.554 29.0884C25.0371 28.856 25.5631 28.7266 26.0988 28.7082C26.6346 28.6899 27.1682 28.783 27.6661 28.9817C28.1639 29.1805 28.615 29.4805 28.9908 29.8627C29.0708 29.9412 29.1464 30.0242 29.2171 30.1112L34.6756 36.688H18.9171ZM28.5692 24.8524C28.5701 24.2595 28.7467 23.6801 29.0766 23.1875C29.4066 22.6948 29.8752 22.311 30.4232 22.0845C30.9711 21.858 31.5739 21.799 32.1555 21.9148C32.737 22.0307 33.2711 22.3164 33.6904 22.7356C34.1097 23.1549 34.3953 23.689 34.5112 24.2706C34.6271 24.8521 34.568 25.4549 34.3415 26.0029C34.115 26.5508 33.7312 27.0194 33.2385 27.3494C32.7459 27.6794 32.1665 27.8559 31.5736 27.8568C31.354 27.8566 31.1351 27.8313 30.9212 27.7814C30.5237 27.6932 30.1484 27.5245 29.8187 27.2856C29.4889 27.0467 29.2117 26.7427 29.0041 26.3924C28.7192 25.9293 28.5687 25.3961 28.5692 24.8524ZM39.3263 36.6391C39.3263 36.6613 39.3263 36.688 39.2908 36.688H37.6444L32.1727 30.0979C33.1665 29.9838 34.1075 29.5895 34.8858 28.961C35.6641 28.3325 36.2477 27.4957 36.5685 26.5481C36.8894 25.6006 36.9342 24.5813 36.6979 23.6092C36.4615 22.6372 35.9537 21.7523 35.2337 21.0579C34.5136 20.3634 33.6109 19.8879 32.6309 19.687C31.6509 19.486 30.634 19.5677 29.6987 19.9226C28.7634 20.2776 27.9482 20.8911 27.3483 21.6917C26.7484 22.4922 26.3884 23.4468 26.3104 24.4442C26.3104 24.5773 26.3104 24.7149 26.3104 24.8524C26.3067 25.3945 26.3891 25.9338 26.5545 26.4501C26.3328 26.4367 26.1105 26.4367 25.8888 26.4501C24.9238 26.5012 23.9849 26.781 23.1492 27.2663C22.3136 27.7516 21.6053 28.4286 21.0827 29.2414C21.0428 29.308 20.9984 29.3701 20.9585 29.4322C17.852 34.256 16.6405 36.0356 16.1879 36.688H13.2767V17.3127C13.2761 17.3075 13.2765 17.3021 13.278 17.2971C13.2794 17.292 13.2819 17.2872 13.2852 17.2831C13.2885 17.279 13.2926 17.2756 13.2972 17.273C13.3019 17.2705 13.307 17.2689 13.3122 17.2683H39.3086C39.3138 17.2689 39.3189 17.2705 39.3236 17.273C39.3282 17.2756 39.3323 17.279 39.3356 17.2831C39.3389 17.2872 39.3413 17.292 39.3428 17.2971C39.3442 17.3021 39.3447 17.3075 39.3441 17.3127L39.3263 36.6391Z" fill="white"/>
</svg>
