<svg width="17" height="17" viewBox="0 0 17 17" fill="none" xmlns="http://www.w3.org/2000/svg">
<path d="M7.02612 0.502374C5.71977 0.501136 4.43906 0.86494 3.32844 1.55275C2.50944 2.06292 1.80367 2.73549 1.25467 3.52898C0.705661 4.32246 0.325072 5.22003 0.136375 6.1663C-0.0523219 7.11256 -0.0451311 8.08746 0.157523 9.03083C0.360176 9.97421 0.753991 10.8661 1.31466 11.6513C1.87532 12.4366 2.59095 13.0987 3.41739 13.5967C4.24383 14.0947 5.16355 14.4181 6.11981 14.5469C7.07607 14.6758 8.0486 14.6073 8.97736 14.3457C9.90612 14.0841 10.7714 13.635 11.5199 13.026L10.4434 11.9424C9.47353 12.7173 8.26752 13.1366 7.02612 13.1306C5.92681 13.1301 4.8523 12.8038 3.93835 12.1929C3.0244 11.582 2.31203 10.714 1.89124 9.69837C1.47044 8.68278 1.36011 7.56526 1.57417 6.48699C1.78823 5.40872 2.31708 4.41808 3.09391 3.64025C3.87075 2.86242 4.8607 2.3323 5.9387 2.11685C7.01669 1.90141 8.13436 2.01031 9.15049 2.42981C10.1666 2.8493 11.0356 3.56057 11.6477 4.47374C12.2597 5.3869 12.5874 6.46099 12.5893 7.5603C12.592 8.74444 12.2091 9.89728 11.4985 10.8445L12.5822 11.9305C13.4023 10.8884 13.9124 9.63652 14.0542 8.31804C14.1961 6.99956 13.9638 5.66779 13.3841 4.47513C12.8044 3.28247 11.9006 2.27712 10.7762 1.57412C9.65182 0.871122 8.35221 0.498885 7.02612 0.500003V0.502374Z" fill="#A5B1BD"/>
<path d="M15.8592 16.2793C15.7171 16.4207 15.5249 16.5 15.3245 16.5C15.1241 16.5 14.9318 16.4207 14.7898 16.2793L11.527 13.026C11.9145 12.7015 12.268 12.3384 12.5821 11.9424L15.8592 15.2194C15.9976 15.3611 16.0752 15.5513 16.0752 15.7494C16.0752 15.9475 15.9976 16.1377 15.8592 16.2793Z" fill="#A5B1BD"/>
<path d="M7.73664 4.5351C7.73729 4.65068 7.71126 4.76486 7.66056 4.86873C7.60986 4.9726 7.53587 5.06336 7.44435 5.13396C7.37521 5.19216 7.29406 5.23435 7.20671 5.25753C7.17789 5.27205 7.14627 5.28016 7.11402 5.28129C6.53423 5.43658 6.02183 5.77874 5.65621 6.25477C5.2906 6.7308 5.09218 7.31412 5.0917 7.91435C5.09414 8.46191 5.2596 8.99635 5.56698 9.44951C5.56698 9.44951 5.58362 9.47327 5.59075 9.4804C5.71777 9.61721 5.78752 9.79752 5.78562 9.9842C5.78661 10.1498 5.73298 10.3111 5.63308 10.4432C5.53317 10.5752 5.39253 10.6707 5.23291 10.7148C5.07329 10.7589 4.90358 10.7492 4.75005 10.6871C4.59651 10.6251 4.4677 10.5142 4.38353 10.3715C4.29528 10.2507 4.21586 10.1236 4.14589 9.99133C3.78716 9.35803 3.59961 8.64219 3.6017 7.91435C3.60132 7.08395 3.84508 6.27177 4.30267 5.57883C4.76027 4.88589 5.41149 4.34277 6.17534 4.01704C6.38906 3.92865 6.6091 3.85636 6.83361 3.80079C6.88448 3.79056 6.93619 3.78499 6.98808 3.78415C7.08667 3.78384 7.18434 3.80306 7.27546 3.84072C7.36657 3.87838 7.44934 3.93372 7.51894 4.00355C7.58855 4.07337 7.64362 4.1563 7.68099 4.24753C7.71835 4.33877 7.73727 4.43651 7.73664 4.5351Z" fill="#A5B1BD"/>
</svg>
