<svg width="53" height="53" viewBox="0 0 53 53" fill="none" xmlns="http://www.w3.org/2000/svg">
<circle opacity="0.1" cx="26.5" cy="26.5" r="26.5" fill="#535C64"/>
<path d="M37.592 21.1979C37.592 18.3274 33.8311 16 29.1935 16C24.7725 16 21.1526 18.1108 20.8225 20.7991C20.8053 20.9298 20.7985 21.0638 20.7985 21.1945V25.1961C20.7985 28.0666 24.5594 30.394 29.197 30.394C33.8345 30.394 37.5954 28.0666 37.5954 25.1961V21.1979H37.592ZM35.9934 25.1961C35.9934 26.8943 33.2054 28.792 29.197 28.792C25.1885 28.792 22.4005 26.8943 22.4005 25.1961V24.2472C22.4658 24.2954 22.5311 24.3538 22.5999 24.4054C24.1434 25.6189 26.5258 26.3924 29.2004 26.3924C31.875 26.3924 34.2574 25.6155 35.8009 24.4054C35.8663 24.3641 35.9316 24.3057 36.0003 24.2472V25.1961H35.9934ZM35.7941 21.9886C35.5947 22.4183 35.2406 22.8309 34.7455 23.2021C33.5561 24.1166 31.5931 24.7938 29.1935 24.7938C26.7939 24.7938 24.831 24.1166 23.6415 23.2021C23.1465 22.8309 22.7924 22.4183 22.593 21.9886C22.4623 21.7239 22.3936 21.4592 22.3936 21.1979C22.3936 19.4997 25.1816 17.602 29.1901 17.602C33.1985 17.602 35.9866 19.4997 35.9866 21.1979C35.9934 21.4626 35.9247 21.7239 35.7941 21.9886Z" fill="white"/>
<path d="M27.1961 25.5777H25.5975V29.7924H27.1961V25.5777Z" fill="white"/>
<path d="M32.7963 25.4779H31.1978V29.6926H32.7963V25.4779Z" fill="white"/>
<path d="M39.1941 22.2602V23.9275C41.1742 24.6116 42.3946 25.8252 42.3946 26.9459C42.3946 27.2106 42.3293 27.4753 42.1952 27.7366C41.9958 28.1663 41.6418 28.5788 41.1467 28.9501C39.9572 29.8646 37.9943 30.5418 35.5947 30.5418C34.8865 30.5418 34.2162 30.4834 33.5905 30.3699V31.996C34.2334 32.0957 34.9037 32.1438 35.5947 32.1438C38.2659 32.1438 40.6517 31.3669 42.1952 30.1568C42.2606 30.1086 42.3259 30.0571 42.3946 29.9986V30.9475C42.3946 32.6457 39.6066 34.5434 35.5981 34.5434C34.89 34.5434 34.2196 34.4849 33.5939 34.3715C33.0164 34.2821 32.4801 34.1412 31.9954 33.959C30.6271 33.488 29.6267 32.7626 29.142 31.996H27.3784C28.1622 34.3646 31.545 36.1385 35.6016 36.1385C40.2357 36.1385 44.0001 33.8214 44.0001 30.9509V26.9493C43.9932 24.8763 42.0302 23.0853 39.1941 22.2602Z" fill="white"/>
<path d="M33.5904 31.996H31.9918V35.5438H33.5904V31.996Z" fill="white"/>
<path d="M39.1939 31.2259H37.5953V35.4406H39.1939V31.2259Z" fill="white"/>
<path d="M25.8037 31.9685H12.9189V33.4571H25.8037V31.9685Z" fill="white"/>
<path d="M20.4443 28.6923H11.1039V30.1808H20.4443V28.6923Z" fill="white"/>
<path d="M18.9661 25.4161H9V26.9046H18.9661V25.4161Z" fill="white"/>
</svg>
