<svg width="17" height="17" viewBox="0 0 17 17" fill="none" xmlns="http://www.w3.org/2000/svg">
<path opacity="0.4" d="M3.77676 16.8335C1.73426 16.8335 0.0709229 15.1416 0.0709229 13.0631L0.0709229 8.92879C0.0709229 6.85445 1.72926 5.16683 3.76842 5.16683H13.0318C15.0751 5.16683 16.7376 6.85869 16.7376 8.93812V13.0707C16.7376 15.1459 15.0793 16.8335 13.0401 16.8335H12.2568H3.77676Z" fill="white"/>
<path d="M7.94993 0.350983L5.52576 2.72247C5.27576 2.96758 5.27576 3.36201 5.52743 3.6063C5.7791 3.84978 6.18493 3.84897 6.43493 3.60468L7.76243 2.30531V3.55112V10.543C7.76243 10.888 8.04993 11.168 8.4041 11.168C8.7591 11.168 9.04576 10.888 9.04576 10.543V2.30531L10.3733 3.60468C10.6233 3.84897 11.0291 3.84978 11.2808 3.6063C11.4066 3.48375 11.4699 3.32387 11.4699 3.16317C11.4699 3.0041 11.4066 2.84421 11.2824 2.72247L8.8591 0.350983C8.73826 0.2333 8.57493 0.166749 8.4041 0.166749C8.2341 0.166749 8.07076 0.2333 7.94993 0.350983Z" fill="white"/>
</svg>
