<svg width="18" height="17" viewBox="0 0 18 17" fill="none" xmlns="http://www.w3.org/2000/svg">
<path opacity="0.4" d="M13.8412 4.58008C15.8837 4.58008 17.5462 6.29657 17.5462 8.40627V12.5999C17.5462 14.7044 15.8878 16.4166 13.8495 16.4166H4.58617C2.54284 16.4166 0.879505 14.701 0.879505 12.5913V8.39767C0.879505 6.29313 2.53867 4.58008 4.57784 4.58008H5.36117L13.8412 4.58008Z" fill="white"/>
<path d="M9.66802 11.8644L12.0922 9.39116C12.3422 9.13554 12.3422 8.72418 12.0905 8.4694C11.8389 8.21547 11.433 8.21632 11.183 8.4711L9.85552 9.82538L9.85552 1.235C9.85552 0.875269 9.56802 0.583252 9.21302 0.583252C8.85885 0.583252 8.57219 0.875269 8.57219 1.235L8.57219 9.82538L7.24385 8.4711C6.99385 8.21632 6.58802 8.21547 6.33635 8.4694C6.21052 8.59721 6.14719 8.76396 6.14719 8.93155C6.14719 9.09745 6.21052 9.2642 6.33469 9.39116L8.75885 11.8644C8.87969 11.9871 9.04302 12.0566 9.21302 12.0566C9.38385 12.0566 9.54719 11.9871 9.66802 11.8644Z" fill="white"/>
</svg>
