<svg width="22" height="24" viewBox="0 0 22 24" fill="none" xmlns="http://www.w3.org/2000/svg">
<path d="M11.0904 7.85968C8.6843 7.85968 6.73633 9.71478 6.73633 12.0062C6.73633 14.2881 8.6843 16.1432 11.0904 16.1432C13.4965 16.1432 15.4444 14.2881 15.4444 12.0062C15.4411 9.71478 13.4932 7.85968 11.0904 7.85968ZM11.0904 14.4828C9.65333 14.4828 8.47993 13.3716 8.47993 12.003C8.47993 10.6282 9.65662 9.51703 11.0904 9.51703C12.5242 9.51703 13.7008 10.6282 13.7008 12.003C13.7008 13.3716 12.5242 14.4828 11.0904 14.4828Z" fill="#535C64"/>
<path d="M12.9262 1.01072L11.0903 0L0.177246 6.00157L1.99005 6.9966L11.0903 1.99319L11.1134 2.00576L20.1873 6.9966V17.0034L22.0001 16.0084V6.00157L12.9262 1.01072ZM19.6665 17.289L11.0903 22.0068L1.99005 17.0034V6.46298L0.177246 6.00157V17.9984L11.0903 24L21.9902 18.0047L20.184 17.0065L19.6665 17.289Z" fill="#535C64"/>
</svg>
