<svg width="53" height="53" viewBox="0 0 53 53" fill="none" xmlns="http://www.w3.org/2000/svg">
<circle opacity="0.1" cx="26.5" cy="26.5" r="26.5" fill="#535C64"/>
<path d="M29.941 34.1642L30.7577 35.0054C29.7804 35.1307 28.7786 35.0762 27.8149 34.8421C26.5599 34.5372 25.3838 33.9328 24.4174 33.0944L23.5735 34.0662C24.6951 35.0381 26.0562 35.7377 27.51 36.0916C28.0463 36.2223 28.5907 36.304 29.1379 36.3394C29.6769 36.372 30.216 36.3584 30.7522 36.3013L29.9845 37.1234L30.9265 38L33.1506 35.6152L30.8611 33.2659L29.941 34.1642Z" fill="white"/>
<path d="M37.177 25.1207C37.0436 23.6697 36.4692 22.3439 35.5871 21.2822C35.4483 21.1161 35.3067 20.9582 35.1543 20.8058C35.0018 20.6533 34.8439 20.5091 34.6778 20.3729C33.6161 19.4909 32.2931 18.9165 30.8394 18.7831V20.0762C31.9365 20.1987 32.941 20.6343 33.7632 21.2904L32.7804 22.2731C32.2223 21.8593 31.5608 21.5762 30.8421 21.47V20.0762H29.5545V21.47C29.353 21.5 29.1597 21.5435 28.9691 21.6007C28.9664 21.5953 28.9637 21.5898 28.961 21.5844C28.7078 21.176 28.4111 20.7949 28.0817 20.4492C28.5445 20.2613 29.0399 20.1361 29.5572 20.0762V18.7831C28.6425 18.8675 27.7768 19.1261 27.0009 19.5263C26.9955 19.5236 26.9927 19.5181 26.9873 19.5154C25.8575 18.7368 24.4882 18.2795 23.0127 18.2795C19.1388 18.2795 16 21.4183 16 25.2895C16 29.1633 19.1388 32.2994 23.0127 32.2994C24.1751 32.2994 25.2695 32.0163 26.2332 31.5154C26.6552 31.2976 27.0554 31.0363 27.4202 30.7368C27.7958 30.4347 28.1416 30.0889 28.4519 29.7105C28.7269 29.3729 28.9719 29.0054 29.1842 28.6189C29.7178 27.6279 30.0254 26.4927 30.0254 25.2867C30.0254 24.402 29.8594 23.5526 29.5599 22.774C29.7668 22.7278 29.9819 22.7033 30.2024 22.7033C31.0436 22.7033 31.8058 23.0463 32.3611 23.5989H32.3639C32.5163 23.7513 32.6524 23.9201 32.7695 24.1025C33.0771 24.5789 33.2595 25.1479 33.2595 25.7577C33.2595 26.6016 32.9165 27.3666 32.3639 27.9165C31.8085 28.4691 31.049 28.8121 30.2051 28.8121C29.8457 28.8121 29.5027 28.7495 29.1842 28.6352C28.9719 29.0218 28.7296 29.3893 28.4519 29.7268C28.8004 29.882 29.1733 29.9936 29.5626 30.0508V31.4419C28.7922 31.3548 28.0681 31.1152 27.4202 30.7532C27.0554 31.0526 26.6552 31.3112 26.2332 31.5317C27.1969 32.196 28.3349 32.6261 29.5626 32.7377C29.775 32.7568 29.99 32.7677 30.2051 32.7677C30.4202 32.7677 30.6379 32.7595 30.8476 32.7377C32.2986 32.6043 33.6243 32.0299 34.6833 31.1479C34.8494 31.009 35.0073 30.8675 35.1597 30.715C35.3122 30.5626 35.4565 30.4047 35.5926 30.2386C36.4773 29.1797 37.0517 27.8539 37.1851 26.4002C37.2042 26.1878 37.2151 25.9728 37.2151 25.7577C37.2151 25.5426 37.196 25.333 37.177 25.1207ZM28.0789 27.9437C27.4474 29.1415 26.4075 30.0916 25.1443 30.6007C24.4828 30.8702 23.7613 31.0172 23.0045 31.0172C19.8466 31.0172 17.2795 28.4501 17.2795 25.2922C17.2795 22.137 19.8466 19.5671 23.0045 19.5671C24.0145 19.5671 24.9646 19.8312 25.7895 20.2913C26.187 20.5118 26.5517 20.7786 26.8811 21.0835C27.2214 21.3965 27.5236 21.7504 27.7795 22.137C28.0163 22.4964 28.2178 22.8856 28.3702 23.2967C28.6016 23.9174 28.7296 24.5898 28.7296 25.2922C28.7296 26.2477 28.4955 27.1515 28.0789 27.9437ZM30.8394 31.4528V30.0617C31.5581 29.9555 32.2196 29.6724 32.7777 29.2586L33.7604 30.2414C32.9383 30.8947 31.9338 31.3303 30.8394 31.4528ZM34.667 29.3294L33.6842 28.3466C34.098 27.7885 34.3811 27.127 34.4873 26.4083H35.8811C35.7586 27.5054 35.3258 28.51 34.667 29.3294ZM34.49 25.1207C34.3839 24.402 34.1007 23.7432 33.687 23.1851L34.6697 22.1996C35.3258 23.019 35.7586 24.0236 35.8839 25.1207H34.49Z" fill="white"/>
<path d="M23.7478 24.7124C23.6443 24.6634 23.5354 24.6198 23.4211 24.5735C22.6452 24.2822 22.5908 24.1407 22.5908 23.9474C22.5908 23.6888 22.8303 23.5173 23.187 23.5173C23.3748 23.5173 23.5627 23.5472 23.7451 23.6044C23.775 23.6125 23.8077 23.6234 23.8376 23.6343C24.0064 23.7024 24.1942 23.6997 24.3603 23.6207C24.5264 23.5445 24.6543 23.4002 24.7196 23.2205C24.8394 22.8721 24.657 22.4937 24.3113 22.363C24.1697 22.3113 23.9792 22.2514 23.7451 22.2133V22.069C23.7451 21.7151 23.4565 21.4265 23.1026 21.4265C22.746 21.4265 22.4601 21.7151 22.4601 22.069V22.265C21.5971 22.51 21.0418 23.1797 21.0418 24.0563C21.0418 24.5898 21.2922 25.3085 22.4601 25.7904C22.5254 25.8176 22.5962 25.8448 22.6697 25.8721C23.4129 26.1497 23.4728 26.3485 23.4728 26.5771C23.4728 27.0236 22.9556 27.0726 22.7323 27.0726C22.6452 27.0726 22.5554 27.0644 22.4601 27.0508C22.2831 27.0236 22.0926 26.9692 21.9129 26.8956C21.7387 26.8221 21.5427 26.8249 21.3739 26.9038C21.2024 26.9828 21.0717 27.1325 21.0037 27.3312C20.8893 27.6742 21.069 28.0472 21.4066 28.1806C21.7251 28.3058 22.0844 28.382 22.4628 28.4038V28.5944C22.4628 28.951 22.7487 29.2369 23.1053 29.2369C23.4592 29.2369 23.7478 28.951 23.7478 28.5944V28.2514C24.5536 27.971 25.0382 27.3367 25.0382 26.4873C25.0382 25.6951 24.6244 25.1262 23.7478 24.7124Z" fill="white"/>
<path d="M27.0446 17.3512L26.0101 16.8013C26.903 16.3848 27.8721 16.1316 28.8631 16.0608C30.1534 15.9682 31.4547 16.186 32.6308 16.6897L33.1371 15.5082C31.7732 14.9229 30.2623 14.6697 28.7705 14.7786C27.6816 14.8575 26.609 15.127 25.6181 15.5681L26.0999 14.5499L24.9375 14L23.5464 16.9483L26.4429 18.4891L27.0446 17.3512Z" fill="white"/>
</svg>
