<svg width="22" height="24" viewBox="0 0 22 24" fill="none" xmlns="http://www.w3.org/2000/svg">
<path d="M10.3026 17.8406H8.22067V9.8592L6.10376 11.5447L4.63281 10.3735L10.3026 5.8623V17.8406Z" fill="#535C64"/>
<path d="M11.8708 18.1409V6.1626H13.9527V14.144L16.0697 12.4585L17.5367 13.6297L11.8708 18.1409Z" fill="#535C64"/>
<path d="M22.0001 1.65763V22.3455H19.9221V1.65763H2.25525V22.3455H19.9221V24H0.177246V1.65763C0.177245 1.21854 0.396052 0.79738 0.785641 0.486603C1.17523 0.175826 1.70377 0.000820737 2.25525 0H19.9221C20.4736 0.000820737 21.0021 0.175826 21.3917 0.486603C21.7813 0.79738 22.0001 1.21854 22.0001 1.65763Z" fill="#535C64"/>
</svg>
