<svg width="22" height="24" viewBox="0 0 22 24" fill="none" xmlns="http://www.w3.org/2000/svg">
<path d="M13.1449 4.79858V1.97986C13.1449 0.885073 12.4007 0 11.4802 0H1.84189C0.921395 0 0.177246 0.885073 0.177246 1.97986V4.79858V6.71802V22.0201C0.177246 23.1149 0.921395 24 1.84189 24H20.3354C21.2559 24 22.0001 23.1149 22.0001 22.0201V6.77844C22.0001 5.68365 21.2559 4.79858 20.3354 4.79858H13.1449ZM1.79111 1.91944H11.528V4.79858H1.79111V1.91944ZM1.79111 22.0806V6.71802H20.3833V22.0806H1.79111Z" fill="#535C64"/>
<path d="M10.6971 17.282V11.5201H9.08325V17.2216C9.08325 18.3163 9.8274 19.2014 10.7479 19.2014H21.3007V17.282H10.6971Z" fill="#535C64"/>
<path d="M17.1531 15.3604V13.4409H13.9194V15.3604H17.1531Z" fill="#535C64"/>
<path d="M21.4262 9.82477L21.1961 11.5203H10.6702L10.9003 9.82477H21.4262Z" fill="#535C64"/>
</svg>
